<?xml version="1.0" encoding="UTF-8" standalone="no"?>
<!-- Created with Inkscape (http://www.inkscape.org/) -->

<svg
   width="1080"
   height="1920"
   viewBox="0 0 285.75 508.00001"
   version="1.1"
   id="svg5"
   xml:space="preserve"
   inkscape:version="1.4.2 (ebf0e940d0, 2025-05-08)"
   sodipodi:docname="youtube-shorts-mathematik.svg"
   inkscape:export-filename="youtube-header-mathematik.png"
   inkscape:export-xdpi="96"
   inkscape:export-ydpi="96"
   xmlns:inkscape="http://www.inkscape.org/namespaces/inkscape"
   xmlns:sodipodi="http://sodipodi.sourceforge.net/DTD/sodipodi-0.dtd"
   xmlns:xlink="http://www.w3.org/1999/xlink"
   xmlns="http://www.w3.org/2000/svg"
   xmlns:svg="http://www.w3.org/2000/svg"><sodipodi:namedview
     id="namedview7"
     pagecolor="#ffffff"
     bordercolor="#666666"
     borderopacity="1.0"
     inkscape:showpageshadow="2"
     inkscape:pageopacity="0.0"
     inkscape:pagecheckerboard="true"
     inkscape:deskcolor="#d1d1d1"
     inkscape:document-units="mm"
     showgrid="false"
     inkscape:zoom="0.39792937"
     inkscape:cx="90.468316"
     inkscape:cy="1091.9023"
     inkscape:window-width="1920"
     inkscape:window-height="1200"
     inkscape:window-x="0"
     inkscape:window-y="0"
     inkscape:window-maximized="1"
     inkscape:current-layer="layer1-5" /><defs
     id="defs2"><pattern
       inkscape:collect="always"
       xlink:href="#pattern10936"
       id="pattern449"
       patternTransform="matrix(2.6104949,0,0,2.7743745,3436.6677,-203.70314)" /><linearGradient
       id="linearGradient4404"
       inkscape:swatch="solid"><stop
         style="stop-color:#000000;stop-opacity:1;"
         offset="0"
         id="stop4402" /></linearGradient><linearGradient
       id="linearGradient2874"
       inkscape:swatch="solid"><stop
         style="stop-color:#ff00ff;stop-opacity:1;"
         offset="0"
         id="stop2872" /></linearGradient><pattern
       patternUnits="userSpaceOnUse"
       width="304"
       height="304"
       patternTransform="translate(1193.4272,482.00796)"
       id="pattern4341"><path
         fill="#000000"
         d="m 44.1,224 a 5,5 0 1 1 0,2 H 0 v -2 z m 160,48 a 5,5 0 1 1 0,2 H 82 v -2 z m 57.8,-46 a 5,5 0 1 1 0,-2 H 304 v 2 z m 0,16 a 5,5 0 1 1 0,-2 H 304 v 2 z m 6.2,-114 a 5,5 0 1 1 0,2 h -86.2 a 5,5 0 1 1 0,-2 z M 12.1,80 a 5,5 0 1 1 0,2 H 0 v -2 z m 185.8,34 a 5,5 0 1 1 0,-2 h 86.2 a 5,5 0 1 1 0,2 z M 258,12.1 a 5,5 0 1 1 -2,0 V 0 h 2 z m -64,208 a 5,5 0 1 1 -2,0 v -54.2 a 5,5 0 1 1 2,0 z M 242,21.9 V 80 h 62 v 2 H 240 V 21.9 a 5,5 0 1 1 2,0 z m 16,16 V 64 h 46 v 2 H 256 V 37.9 a 5,5 0 1 1 2,0 z m -128,96 V 208 h 16 v 12.1 a 5,5 0 1 1 -2,0 V 210 h -16 v -76.1 a 5,5 0 1 1 2,0 z M 124.1,112 a 5,5 0 1 1 0,2 H 114 v 48 H 85.9 a 5,5 0 1 1 0,-2 H 112 v -48 z m -6.2,130 a 5,5 0 1 1 0,-2 H 176 v -74.1 a 5,5 0 1 1 2,0 V 242 Z m -16,-64 a 5,5 0 1 1 0,-2 H 114 v 48 h 10.1 a 5,5 0 1 1 0,2 H 112 V 178 Z M 66,284.1 a 5,5 0 1 1 -2,0 V 274 H 50 v 30 H 48 V 272 H 66 Z M 236.1,176 a 5,5 0 1 1 0,2 H 226 v 94 h 48 v 32 h -2 v -30 h -48 v -98 z m 25.8,-30 a 5,5 0 1 1 0,-2 H 274 v 44.1 a 5,5 0 1 1 -2,0 V 146 Z m -64,96 a 5,5 0 1 1 0,-2 H 208 v -80 h 16 v -14 h -42.1 a 5,5 0 1 1 0,-2 H 226 v 18 h -16 v 80 z M 284.1,32 a 5,5 0 1 1 0,2 H 272 V 0 h 2 V 32 Z M 98,101.9 V 146 H 53.9 a 5,5 0 1 1 0,-2 H 96 v -42.1 a 5,5 0 1 1 2,0 z M 53.9,34 a 5,5 0 1 1 0,-2 H 80 V 0 h 2 V 34 Z M 114,37.9 V 66 H 82 v 64 H 69.9 a 5,5 0 1 1 0,-2 H 80 V 64 h 32 V 37.9 a 5,5 0 1 1 2,0 z M 101.9,82 a 5,5 0 1 1 0,-2 H 128 V 37.9 a 5,5 0 1 1 2,0 V 82 Z m 16,-64 a 5,5 0 1 1 0,-2 H 146 v 44.1 a 5,5 0 1 1 -2,0 V 18 Z m 102.2,270 a 5,5 0 1 1 0,2 H 98 v 14 H 96 V 288 Z M 242,149.9 V 160 h 16 v 34 h -16 v 62 h 48 v 48 h -2 v -46 h -48 v -66 h 16 v -30 h -16 v -12.1 a 5,5 0 1 1 2,0 z M 53.9,18 a 5,5 0 1 1 0,-2 H 64 V 2 H 48 V 0 h 18 v 18 z m 112,32 a 5,5 0 1 1 0,-2 H 192 V 0 h 50 v 2 h -48 v 48 z m -48,-48 a 5.0009999,5.0009999 0 0 1 -9.8,-2 h 2.07 a 3,3 0 1 0 5.66,0 H 178 V 34 H 160 V 21.9 a 5,5 0 1 1 2,0 V 32 h 14 V 2 Z m 0,96 a 5,5 0 1 1 0,-2 H 137 l 32,-32 h 39 V 21.9 a 5,5 0 1 1 2,0 V 66 h -40.17 l -32,32 z m 28.1,90.1 a 5,5 0 1 1 -2,0 V 111.59 L 175.59,80 H 224 V 21.9 a 5,5 0 1 1 2,0 V 82 H 176.41 L 146,112.41 Z m 16,32 a 5,5 0 1 1 -2,0 V 120.59 L 184.59,96 H 300.1 a 5,5 0 0 1 3.9,-3.9 v 2.07 a 3,3 0 0 0 0,5.66 v 2.07 A 5,5 0 0 1 300.1,98 H 185.41 L 162,121.41 Z m -144,-64 a 5,5 0 1 1 -2,0 v -3.51 l 48,-48 V 48 H 96 V 0 h 2 V 50 H 66 v 55.41 l -48,48 z M 50,53.9 v 43.51 l -48,48 V 208 h 26.1 a 5,5 0 1 1 0,2 H 0 v -65.41 l 48,-48 V 53.9 a 5,5 0 1 1 2,0 z m -16,16 v 19.51 l -34,34 v -2.82 l 32,-32 V 69.9 a 5,5 0 1 1 2,0 z M 12.1,32 a 5,5 0 1 1 0,2 H 9.41 L 0,43.41 V 40.6 L 8.59,32 Z m 265.8,18 a 5,5 0 1 1 0,-2 h 18.69 L 304,40.59 v 2.82 L 297.41,50 Z m -16,160 a 5,5 0 1 1 0,-2 H 288 v -71.41 l 16,-16 v 2.82 l -14,14 V 210 Z m -208,32 a 5,5 0 1 1 0,-2 H 64 V 217.41 L 40.59,194 H 21.9 a 5,5 0 1 1 0,-2 H 41.41 L 66,216.59 V 242 Z m 150.2,14 a 5,5 0 1 1 0,2 H 96 V 201.4 L 56.6,162 H 37.9 a 5,5 0 1 1 0,-2 H 57.4 L 98,200.6 V 256 Z m -150.2,2 a 5,5 0 1 1 0,-2 H 80 V 209.41 L 48.59,178 H 21.9 a 5,5 0 1 1 0,-2 H 49.41 L 82,208.59 V 258 Z M 34,39.8 v 1.61 L 9.41,66 H 0 V 64 H 8.59 L 32,40.59 V 0 h 2 z M 2,300.1 A 5,5 0 0 1 5.9,304 H 3.83 A 3,3 0 0 0 0,302.17 V 256 h 18 v 48 H 16 V 258 H 2 Z M 34,241 v 63 H 32 V 242 H 0 v -2 H 34 Z M 17,18 H 0 V 16 H 16 V 0 h 2 v 18 z m 273,-2 h 14 v 2 H 288 V 0 h 2 z m -32,273 v 15 h -2 v -14 h -14 v 14 h -2 v -16 h 18 z M 0,92.1 A 5.02,5.02 0 0 1 6,97 5,5 0 0 1 0,101.9 V 99.83 A 3,3 0 1 0 0,94.17 Z M 80,272 h 2 v 32 h -2 z m 37.9,32 h -2.07 a 3,3 0 0 0 -5.66,0 h -2.07 a 5,5 0 0 1 9.8,0 z M 5.9,0 A 5.02,5.02 0 0 1 0,5.9 V 3.83 A 3,3 0 0 0 3.83,0 Z m 294.2,0 h 2.07 A 3,3 0 0 0 304,3.83 V 5.9 A 5,5 0 0 1 300.1,0 Z m 3.9,300.1 v 2.07 a 3,3 0 0 0 -1.83,1.83 h -2.07 a 5,5 0 0 1 3.9,-3.9 z M 97,100 a 3,3 0 1 0 0,-6 3,3 0 0 0 0,6 z m 0,-16 a 3,3 0 1 0 0,-6 3,3 0 0 0 0,6 z m 16,16 a 3,3 0 1 0 0,-6 3,3 0 0 0 0,6 z m 16,16 a 3,3 0 1 0 0,-6 3,3 0 0 0 0,6 z m 0,16 a 3,3 0 1 0 0,-6 3,3 0 0 0 0,6 z m -48,32 a 3,3 0 1 0 0,-6 3,3 0 0 0 0,6 z m 16,16 a 3,3 0 1 0 0,-6 3,3 0 0 0 0,6 z m 32,48 a 3,3 0 1 0 0,-6 3,3 0 0 0 0,6 z m -16,16 a 3,3 0 1 0 0,-6 3,3 0 0 0 0,6 z m 32,-16 a 3,3 0 1 0 0,-6 3,3 0 0 0 0,6 z m 0,-32 a 3,3 0 1 0 0,-6 3,3 0 0 0 0,6 z m 16,32 a 3,3 0 1 0 0,-6 3,3 0 0 0 0,6 z m 32,16 a 3,3 0 1 0 0,-6 3,3 0 0 0 0,6 z m 0,-16 a 3,3 0 1 0 0,-6 3,3 0 0 0 0,6 z m -16,-64 a 3,3 0 1 0 0,-6 3,3 0 0 0 0,6 z m 16,0 a 3,3 0 1 0 0,-6 3,3 0 0 0 0,6 z m 16,96 a 3,3 0 1 0 0,-6 3,3 0 0 0 0,6 z m 0,16 a 3,3 0 1 0 0,-6 3,3 0 0 0 0,6 z m 16,16 a 3,3 0 1 0 0,-6 3,3 0 0 0 0,6 z m 16,-144 a 3,3 0 1 0 0,-6 3,3 0 0 0 0,6 z m 0,32 a 3,3 0 1 0 0,-6 3,3 0 0 0 0,6 z m 16,-32 a 3,3 0 1 0 0,-6 3,3 0 0 0 0,6 z m 16,-16 a 3,3 0 1 0 0,-6 3,3 0 0 0 0,6 z m -96,0 a 3,3 0 1 0 0,-6 3,3 0 0 0 0,6 z m 0,16 a 3,3 0 1 0 0,-6 3,3 0 0 0 0,6 z m 16,-32 a 3,3 0 1 0 0,-6 3,3 0 0 0 0,6 z m 96,0 a 3,3 0 1 0 0,-6 3,3 0 0 0 0,6 z M 273,52 a 3,3 0 1 0 0,-6 3,3 0 0 0 0,6 z m 16,-16 a 3,3 0 1 0 0,-6 3,3 0 0 0 0,6 z m -32,0 a 3,3 0 1 0 0,-6 3,3 0 0 0 0,6 z m 0,-16 a 3,3 0 1 0 0,-6 3,3 0 0 0 0,6 z m -16,0 a 3,3 0 1 0 0,-6 3,3 0 0 0 0,6 z m -16,0 a 3,3 0 1 0 0,-6 3,3 0 0 0 0,6 z m -16,0 a 3,3 0 1 0 0,-6 3,3 0 0 0 0,6 z M 49,36 a 3,3 0 1 0 0,-6 3,3 0 0 0 0,6 z m -32,0 a 3,3 0 1 0 0,-6 3,3 0 0 0 0,6 z m 32,16 a 3,3 0 1 0 0,-6 3,3 0 0 0 0,6 z M 33,68 a 3,3 0 1 0 0,-6 3,3 0 0 0 0,6 z M 49,20 a 3,3 0 1 0 0,-6 3,3 0 0 0 0,6 z m 0,240 a 3,3 0 1 0 0,-6 3,3 0 0 0 0,6 z m 16,32 a 3,3 0 1 0 0,-6 3,3 0 0 0 0,6 z M 49,228 a 3,3 0 1 0 0,-6 3,3 0 0 0 0,6 z m 0,16 a 3,3 0 1 0 0,-6 3,3 0 0 0 0,6 z M 33,212 a 3,3 0 1 0 0,-6 3,3 0 0 0 0,6 z M 113,36 a 3,3 0 1 0 0,-6 3,3 0 0 0 0,6 z m 16,0 a 3,3 0 1 0 0,-6 3,3 0 0 0 0,6 z M 113,20 a 3,3 0 1 0 0,-6 3,3 0 0 0 0,6 z m 32,48 a 3,3 0 1 0 0,-6 3,3 0 0 0 0,6 z m 16,-16 a 3,3 0 1 0 0,-6 3,3 0 0 0 0,6 z m 0,-32 a 3,3 0 1 0 0,-6 3,3 0 0 0 0,6 z m 112,176 a 3,3 0 1 0 0,-6 3,3 0 0 0 0,6 z m -16,16 a 3,3 0 1 0 0,-6 3,3 0 0 0 0,6 z m 0,16 a 3,3 0 1 0 0,-6 3,3 0 0 0 0,6 z m 0,16 a 3,3 0 1 0 0,-6 3,3 0 0 0 0,6 z M 17,180 a 3,3 0 1 0 0,-6 3,3 0 0 0 0,6 z m 0,16 a 3,3 0 1 0 0,-6 3,3 0 0 0 0,6 z m 0,-32 a 3,3 0 1 0 0,-6 3,3 0 0 0 0,6 z m 16,0 a 3,3 0 1 0 0,-6 3,3 0 0 0 0,6 z M 17,84 a 3,3 0 1 0 0,-6 3,3 0 0 0 0,6 z m 32,64 a 3,3 0 1 0 0,-6 3,3 0 0 0 0,6 z m 16,-16 a 3,3 0 1 0 0,-6 3,3 0 0 0 0,6 z"
         id="path3969" /></pattern><pattern
       patternUnits="userSpaceOnUse"
       width="304"
       height="304"
       patternTransform="translate(808,388)"
       id="pattern7496"><g
         id="g7494"
         transform="translate(-808,-388)"><rect
           style="fill:#017460;fill-opacity:1;stroke:none;stroke-width:27.366;stroke-dasharray:none;stroke-opacity:0.988235"
           id="rect6764"
           width="304"
           height="304"
           x="808"
           y="388" /><path
           fill="#000000"
           d="m 852.1,612 a 5,5 0 1 1 0,2 H 808 v -2 z m 160,48 a 5,5 0 1 1 0,2 H 890 v -2 z m 57.8,-46 a 5,5 0 1 1 0,-2 h 42.1 v 2 z m 0,16 a 5,5 0 1 1 0,-2 h 42.1 v 2 z m 6.2,-114 a 5,5 0 1 1 0,2 h -86.2 a 5,5 0 1 1 0,-2 z m -256,-48 a 5,5 0 1 1 0,2 H 808 v -2 z m 185.8,34 a 5,5 0 1 1 0,-2 h 86.2 a 5,5 0 1 1 0,2 z M 1066,400.1 a 5,5 0 1 1 -2,0 V 388 h 2 z m -64,208 a 5,5 0 1 1 -2,0 v -54.2 a 5,5 0 1 1 2,0 z m 48,-198.2 V 468 h 62 v 2 h -64 v -60.1 a 5,5 0 1 1 2,0 z m 16,16 V 452 h 46 v 2 h -48 v -28.1 a 5,5 0 1 1 2,0 z m -128,96 V 596 h 16 v 12.1 a 5,5 0 1 1 -2,0 V 598 h -16 v -76.1 a 5,5 0 1 1 2,0 z M 932.1,500 a 5,5 0 1 1 0,2 H 922 v 48 h -28.1 a 5,5 0 1 1 0,-2 H 920 v -48 z m -6.2,130 a 5,5 0 1 1 0,-2 H 984 v -74.1 a 5,5 0 1 1 2,0 V 630 Z m -16,-64 a 5,5 0 1 1 0,-2 H 922 v 48 h 10.1 a 5,5 0 1 1 0,2 H 920 V 566 Z M 874,672.1 a 5,5 0 1 1 -2,0 V 662 h -14 v 30 h -2 v -32 h 18 z M 1044.1,564 a 5,5 0 1 1 0,2 H 1034 v 94 h 48 v 32 h -2 v -30 h -48 v -98 z m 25.8,-30 a 5,5 0 1 1 0,-2 h 12.1 v 44.1 a 5,5 0 1 1 -2,0 V 534 Z m -64,96 a 5,5 0 1 1 0,-2 h 10.1 v -80 h 16 v -14 h -42.1 a 5,5 0 1 1 0,-2 h 44.1 v 18 h -16 v 80 z m 86.2,-210 a 5,5 0 1 1 0,2 H 1080 v -34 h 2 v 32 z M 906,489.9 V 534 h -44.1 a 5,5 0 1 1 0,-2 H 904 v -42.1 a 5,5 0 1 1 2,0 z M 861.9,422 a 5,5 0 1 1 0,-2 H 888 v -32 h 2 v 34 z m 60.1,3.9 V 454 h -32 v 64 h -12.1 a 5,5 0 1 1 0,-2 H 888 v -64 h 32 v -26.1 a 5,5 0 1 1 2,0 z M 909.9,470 a 5,5 0 1 1 0,-2 H 936 v -42.1 a 5,5 0 1 1 2,0 V 470 Z m 16,-64 a 5,5 0 1 1 0,-2 H 954 v 44.1 a 5,5 0 1 1 -2,0 V 406 Z m 102.2,270 a 5,5 0 1 1 0,2 H 906 v 14 h -2 V 676 Z M 1050,537.9 V 548 h 16 v 34 h -16 v 62 h 48 v 48 h -2 v -46 h -48 v -66 h 16 v -30 h -16 v -12.1 a 5,5 0 1 1 2,0 z M 861.9,406 a 5,5 0 1 1 0,-2 H 872 v -14 h -16 v -2 h 18 v 18 z m 112,32 a 5,5 0 1 1 0,-2 h 26.1 v -48 h 50 v 2 h -48 v 48 z m -48,-48 a 5.0009999,5.0009999 0 0 1 -9.8,-2 h 2.07 a 3,3 0 1 0 5.66,0 H 986 v 34 h -18 v -12.1 a 5,5 0 1 1 2,0 V 420 h 14 v -30 z m 0,96 a 5,5 0 1 1 0,-2 H 945 l 32,-32 h 39 v -42.1 a 5,5 0 1 1 2,0 V 454 h -40.17 l -32,32 z m 28.1,90.1 a 5,5 0 1 1 -2,0 V 499.59 L 983.59,468 H 1032 v -58.1 a 5,5 0 1 1 2,0 V 470 H 984.41 L 954,500.41 Z m 16,32 a 5,5 0 1 1 -2,0 V 508.59 L 992.59,484 h 115.51 a 5,5 0 0 1 3.9,-3.9 v 2.07 a 3,3 0 0 0 0,5.66 v 2.07 a 5,5 0 0 1 -3.9,-3.9 H 993.41 L 970,509.41 Z m -144,-64 a 5,5 0 1 1 -2,0 v -3.51 l 48,-48 V 436 h 32 v -48 h 2 v 50 h -32 v 55.41 l -48,48 z m 32,-102.2 v 43.51 l -48,48 V 596 h 26.1 a 5,5 0 1 1 0,2 H 808 v -65.41 l 48,-48 V 441.9 a 5,5 0 1 1 2,0 z m -16,16 v 19.51 l -34,34 v -2.82 l 32,-32 V 457.9 a 5,5 0 1 1 2,0 z M 820.1,420 a 5,5 0 1 1 0,2 h -2.69 l -9.41,9.41 v -2.81 l 8.59,-8.6 z m 265.8,18 a 5,5 0 1 1 0,-2 h 18.69 l 7.41,-7.41 v 2.82 l -6.59,6.59 z m -16,160 a 5,5 0 1 1 0,-2 h 26.1 v -71.41 l 16,-16 v 2.82 l -14,14 V 598 Z m -208,32 a 5,5 0 1 1 0,-2 H 872 V 605.41 L 848.59,582 H 829.9 a 5,5 0 1 1 0,-2 h 19.51 L 874,604.59 V 630 Z m 150.2,14 a 5,5 0 1 1 0,2 H 904 V 589.4 L 864.6,550 h -18.7 a 5,5 0 1 1 0,-2 h 19.5 L 906,588.6 V 644 Z m -150.2,2 a 5,5 0 1 1 0,-2 H 888 V 597.41 L 856.59,566 H 829.9 a 5,5 0 1 1 0,-2 h 27.51 L 890,596.59 V 646 Z M 842,427.8 v 1.61 L 817.41,454 H 808 v -2 h 8.59 L 840,428.59 V 388 h 2 z m -32,260.3 a 5,5 0 0 1 3.9,3.9 h -2.07 A 3,3 0 0 0 808,690.17 V 644 h 18 v 48 h -2 V 646 H 810 Z M 842,629 v 63 h -2 v -62 h -32 v -2 h 34 z M 825,406 h -17 v -2 h 16 v -16 h 2 v 18 z m 273,-2 h 14 v 2 h -16 v -18 h 2 z m -32,273 v 15 h -2 v -14 h -14 v 14 h -2 v -16 h 18 z M 808,480.1 a 5.02,5.02 0 0 1 6,4.9 5,5 0 0 1 -6,4.9 v -2.07 a 3,3 0 1 0 0,-5.66 z M 888,660 h 2 v 32 h -2 z m 37.9,32 h -2.07 a 3,3 0 0 0 -5.66,0 h -2.07 a 5,5 0 0 1 9.8,0 z m -112,-304 a 5.02,5.02 0 0 1 -5.9,5.9 v -2.07 a 3,3 0 0 0 3.83,-3.83 z m 294.2,0 h 2.07 a 3,3 0 0 0 1.83,3.83 v 2.07 a 5,5 0 0 1 -3.9,-5.9 z m 3.9,300.1 v 2.07 a 3,3 0 0 0 -1.83,1.83 h -2.07 a 5,5 0 0 1 3.9,-3.9 z M 905,488 a 3,3 0 1 0 0,-6 3,3 0 0 0 0,6 z m 0,-16 a 3,3 0 1 0 0,-6 3,3 0 0 0 0,6 z m 16,16 a 3,3 0 1 0 0,-6 3,3 0 0 0 0,6 z m 16,16 a 3,3 0 1 0 0,-6 3,3 0 0 0 0,6 z m 0,16 a 3,3 0 1 0 0,-6 3,3 0 0 0 0,6 z m -48,32 a 3,3 0 1 0 0,-6 3,3 0 0 0 0,6 z m 16,16 a 3,3 0 1 0 0,-6 3,3 0 0 0 0,6 z m 32,48 a 3,3 0 1 0 0,-6 3,3 0 0 0 0,6 z m -16,16 a 3,3 0 1 0 0,-6 3,3 0 0 0 0,6 z m 32,-16 a 3,3 0 1 0 0,-6 3,3 0 0 0 0,6 z m 0,-32 a 3,3 0 1 0 0,-6 3,3 0 0 0 0,6 z m 16,32 a 3,3 0 1 0 0,-6 3,3 0 0 0 0,6 z m 32,16 a 3,3 0 1 0 0,-6 3,3 0 0 0 0,6 z m 0,-16 a 3,3 0 1 0 0,-6 3,3 0 0 0 0,6 z m -16,-64 a 3,3 0 1 0 0,-6 3,3 0 0 0 0,6 z m 16,0 a 3,3 0 1 0 0,-6 3,3 0 0 0 0,6 z m 16,96 a 3,3 0 1 0 0,-6 3,3 0 0 0 0,6 z m 0,16 a 3,3 0 1 0 0,-6 3,3 0 0 0 0,6 z m 16,16 a 3,3 0 1 0 0,-6 3,3 0 0 0 0,6 z m 16,-144 a 3,3 0 1 0 0,-6 3,3 0 0 0 0,6 z m 0,32 a 3,3 0 1 0 0,-6 3,3 0 0 0 0,6 z m 16,-32 a 3,3 0 1 0 0,-6 3,3 0 0 0 0,6 z m 16,-16 a 3,3 0 1 0 0,-6 3,3 0 0 0 0,6 z m -96,0 a 3,3 0 1 0 0,-6 3,3 0 0 0 0,6 z m 0,16 a 3,3 0 1 0 0,-6 3,3 0 0 0 0,6 z m 16,-32 a 3,3 0 1 0 0,-6 3,3 0 0 0 0,6 z m 96,0 a 3,3 0 1 0 0,-6 3,3 0 0 0 0,6 z m -16,-64 a 3,3 0 1 0 0,-6 3,3 0 0 0 0,6 z m 16,-16 a 3,3 0 1 0 0,-6 3,3 0 0 0 0,6 z m -32,0 a 3,3 0 1 0 0,-6 3,3 0 0 0 0,6 z m 0,-16 a 3,3 0 1 0 0,-6 3,3 0 0 0 0,6 z m -16,0 a 3,3 0 1 0 0,-6 3,3 0 0 0 0,6 z m -16,0 a 3,3 0 1 0 0,-6 3,3 0 0 0 0,6 z m -16,0 a 3,3 0 1 0 0,-6 3,3 0 0 0 0,6 z m -160,16 a 3,3 0 1 0 0,-6 3,3 0 0 0 0,6 z m -32,0 a 3,3 0 1 0 0,-6 3,3 0 0 0 0,6 z m 32,16 a 3,3 0 1 0 0,-6 3,3 0 0 0 0,6 z m -16,16 a 3,3 0 1 0 0,-6 3,3 0 0 0 0,6 z m 16,-48 a 3,3 0 1 0 0,-6 3,3 0 0 0 0,6 z m 0,240 a 3,3 0 1 0 0,-6 3,3 0 0 0 0,6 z m 16,32 a 3,3 0 1 0 0,-6 3,3 0 0 0 0,6 z m -16,-64 a 3,3 0 1 0 0,-6 3,3 0 0 0 0,6 z m 0,16 a 3,3 0 1 0 0,-6 3,3 0 0 0 0,6 z m -16,-32 a 3,3 0 1 0 0,-6 3,3 0 0 0 0,6 z m 80,-176 a 3,3 0 1 0 0,-6 3,3 0 0 0 0,6 z m 16,0 a 3,3 0 1 0 0,-6 3,3 0 0 0 0,6 z m -16,-16 a 3,3 0 1 0 0,-6 3,3 0 0 0 0,6 z m 32,48 a 3,3 0 1 0 0,-6 3,3 0 0 0 0,6 z m 16,-16 a 3,3 0 1 0 0,-6 3,3 0 0 0 0,6 z m 0,-32 a 3,3 0 1 0 0,-6 3,3 0 0 0 0,6 z m 112,176 a 3,3 0 1 0 0,-6 3,3 0 0 0 0,6 z m -16,16 a 3,3 0 1 0 0,-6 3,3 0 0 0 0,6 z m 0,16 a 3,3 0 1 0 0,-6 3,3 0 0 0 0,6 z m 0,16 a 3,3 0 1 0 0,-6 3,3 0 0 0 0,6 z M 825,568 a 3,3 0 1 0 0,-6 3,3 0 0 0 0,6 z m 0,16 a 3,3 0 1 0 0,-6 3,3 0 0 0 0,6 z m 0,-32 a 3,3 0 1 0 0,-6 3,3 0 0 0 0,6 z m 16,0 a 3,3 0 1 0 0,-6 3,3 0 0 0 0,6 z m -16,-80 a 3,3 0 1 0 0,-6 3,3 0 0 0 0,6 z m 32,64 a 3,3 0 1 0 0,-6 3,3 0 0 0 0,6 z m 16,-16 a 3,3 0 1 0 0,-6 3,3 0 0 0 0,6 z"
           id="path5567"
           style="fill:#cefbf2;fill-opacity:1" /></g></pattern><pattern
       patternUnits="userSpaceOnUse"
       width="304"
       height="304"
       patternTransform="translate(2272.3737,16.09555)"
       id="pattern7619"><rect
         style="fill:#017460;fill-opacity:1;stroke:none;stroke-width:27.366;stroke-dasharray:none;stroke-opacity:0.988235"
         id="rect7613"
         width="304"
         height="304"
         x="0"
         y="0" /><path
         fill="#000000"
         d="m 44.1,224 a 5,5 0 1 1 0,2 H 0 v -2 z m 160,48 a 5,5 0 1 1 0,2 H 82 v -2 z m 57.8,-46 a 5,5 0 1 1 0,-2 H 304 v 2 z m 0,16 a 5,5 0 1 1 0,-2 H 304 v 2 z m 6.2,-114 a 5,5 0 1 1 0,2 h -86.2 a 5,5 0 1 1 0,-2 z M 12.1,80 a 5,5 0 1 1 0,2 H 0 v -2 z m 185.8,34 a 5,5 0 1 1 0,-2 h 86.2 a 5,5 0 1 1 0,2 z M 258,12.1 a 5,5 0 1 1 -2,0 V 0 h 2 z m -64,208 a 5,5 0 1 1 -2,0 v -54.2 a 5,5 0 1 1 2,0 z M 242,21.9 V 80 h 62 v 2 H 240 V 21.9 a 5,5 0 1 1 2,0 z m 16,16 V 64 h 46 v 2 H 256 V 37.9 a 5,5 0 1 1 2,0 z m -128,96 V 208 h 16 v 12.1 a 5,5 0 1 1 -2,0 V 210 h -16 v -76.1 a 5,5 0 1 1 2,0 z M 124.1,112 a 5,5 0 1 1 0,2 H 114 v 48 H 85.9 a 5,5 0 1 1 0,-2 H 112 v -48 z m -6.2,130 a 5,5 0 1 1 0,-2 H 176 v -74.1 a 5,5 0 1 1 2,0 V 242 Z m -16,-64 a 5,5 0 1 1 0,-2 H 114 v 48 h 10.1 a 5,5 0 1 1 0,2 H 112 V 178 Z M 66,284.1 a 5,5 0 1 1 -2,0 V 274 H 50 v 30 H 48 V 272 H 66 Z M 236.1,176 a 5,5 0 1 1 0,2 H 226 v 94 h 48 v 32 h -2 v -30 h -48 v -98 z m 25.8,-30 a 5,5 0 1 1 0,-2 H 274 v 44.1 a 5,5 0 1 1 -2,0 V 146 Z m -64,96 a 5,5 0 1 1 0,-2 H 208 v -80 h 16 v -14 h -42.1 a 5,5 0 1 1 0,-2 H 226 v 18 h -16 v 80 z M 284.1,32 a 5,5 0 1 1 0,2 H 272 V 0 h 2 V 32 Z M 98,101.9 V 146 H 53.9 a 5,5 0 1 1 0,-2 H 96 v -42.1 a 5,5 0 1 1 2,0 z M 53.9,34 a 5,5 0 1 1 0,-2 H 80 V 0 h 2 V 34 Z M 114,37.9 V 66 H 82 v 64 H 69.9 a 5,5 0 1 1 0,-2 H 80 V 64 h 32 V 37.9 a 5,5 0 1 1 2,0 z M 101.9,82 a 5,5 0 1 1 0,-2 H 128 V 37.9 a 5,5 0 1 1 2,0 V 82 Z m 16,-64 a 5,5 0 1 1 0,-2 H 146 v 44.1 a 5,5 0 1 1 -2,0 V 18 Z m 102.2,270 a 5,5 0 1 1 0,2 H 98 v 14 H 96 V 288 Z M 242,149.9 V 160 h 16 v 34 h -16 v 62 h 48 v 48 h -2 v -46 h -48 v -66 h 16 v -30 h -16 v -12.1 a 5,5 0 1 1 2,0 z M 53.9,18 a 5,5 0 1 1 0,-2 H 64 V 2 H 48 V 0 h 18 v 18 z m 112,32 a 5,5 0 1 1 0,-2 H 192 V 0 h 50 v 2 h -48 v 48 z m -48,-48 a 5.0009999,5.0009999 0 0 1 -9.8,-2 h 2.07 a 3,3 0 1 0 5.66,0 H 178 V 34 H 160 V 21.9 a 5,5 0 1 1 2,0 V 32 h 14 V 2 Z m 0,96 a 5,5 0 1 1 0,-2 H 137 l 32,-32 h 39 V 21.9 a 5,5 0 1 1 2,0 V 66 h -40.17 l -32,32 z m 28.1,90.1 a 5,5 0 1 1 -2,0 V 111.59 L 175.59,80 H 224 V 21.9 a 5,5 0 1 1 2,0 V 82 H 176.41 L 146,112.41 Z m 16,32 a 5,5 0 1 1 -2,0 V 120.59 L 184.59,96 H 300.1 a 5,5 0 0 1 3.9,-3.9 v 2.07 a 3,3 0 0 0 0,5.66 v 2.07 A 5,5 0 0 1 300.1,98 H 185.41 L 162,121.41 Z m -144,-64 a 5,5 0 1 1 -2,0 v -3.51 l 48,-48 V 48 H 96 V 0 h 2 V 50 H 66 v 55.41 l -48,48 z M 50,53.9 v 43.51 l -48,48 V 208 h 26.1 a 5,5 0 1 1 0,2 H 0 v -65.41 l 48,-48 V 53.9 a 5,5 0 1 1 2,0 z m -16,16 v 19.51 l -34,34 v -2.82 l 32,-32 V 69.9 a 5,5 0 1 1 2,0 z M 12.1,32 a 5,5 0 1 1 0,2 H 9.41 L 0,43.41 V 40.6 L 8.59,32 Z m 265.8,18 a 5,5 0 1 1 0,-2 h 18.69 L 304,40.59 v 2.82 L 297.41,50 Z m -16,160 a 5,5 0 1 1 0,-2 H 288 v -71.41 l 16,-16 v 2.82 l -14,14 V 210 Z m -208,32 a 5,5 0 1 1 0,-2 H 64 V 217.41 L 40.59,194 H 21.9 a 5,5 0 1 1 0,-2 H 41.41 L 66,216.59 V 242 Z m 150.2,14 a 5,5 0 1 1 0,2 H 96 V 201.4 L 56.6,162 H 37.9 a 5,5 0 1 1 0,-2 H 57.4 L 98,200.6 V 256 Z m -150.2,2 a 5,5 0 1 1 0,-2 H 80 V 209.41 L 48.59,178 H 21.9 a 5,5 0 1 1 0,-2 H 49.41 L 82,208.59 V 258 Z M 34,39.8 v 1.61 L 9.41,66 H 0 V 64 H 8.59 L 32,40.59 V 0 h 2 z M 2,300.1 A 5,5 0 0 1 5.9,304 H 3.83 A 3,3 0 0 0 0,302.17 V 256 h 18 v 48 H 16 V 258 H 2 Z M 34,241 v 63 H 32 V 242 H 0 v -2 H 34 Z M 17,18 H 0 V 16 H 16 V 0 h 2 v 18 z m 273,-2 h 14 v 2 H 288 V 0 h 2 z m -32,273 v 15 h -2 v -14 h -14 v 14 h -2 v -16 h 18 z M 0,92.1 A 5.02,5.02 0 0 1 6,97 5,5 0 0 1 0,101.9 V 99.83 A 3,3 0 1 0 0,94.17 Z M 80,272 h 2 v 32 h -2 z m 37.9,32 h -2.07 a 3,3 0 0 0 -5.66,0 h -2.07 a 5,5 0 0 1 9.8,0 z M 5.9,0 A 5.02,5.02 0 0 1 0,5.9 V 3.83 A 3,3 0 0 0 3.83,0 Z m 294.2,0 h 2.07 A 3,3 0 0 0 304,3.83 V 5.9 A 5,5 0 0 1 300.1,0 Z m 3.9,300.1 v 2.07 a 3,3 0 0 0 -1.83,1.83 h -2.07 a 5,5 0 0 1 3.9,-3.9 z M 97,100 a 3,3 0 1 0 0,-6 3,3 0 0 0 0,6 z m 0,-16 a 3,3 0 1 0 0,-6 3,3 0 0 0 0,6 z m 16,16 a 3,3 0 1 0 0,-6 3,3 0 0 0 0,6 z m 16,16 a 3,3 0 1 0 0,-6 3,3 0 0 0 0,6 z m 0,16 a 3,3 0 1 0 0,-6 3,3 0 0 0 0,6 z m -48,32 a 3,3 0 1 0 0,-6 3,3 0 0 0 0,6 z m 16,16 a 3,3 0 1 0 0,-6 3,3 0 0 0 0,6 z m 32,48 a 3,3 0 1 0 0,-6 3,3 0 0 0 0,6 z m -16,16 a 3,3 0 1 0 0,-6 3,3 0 0 0 0,6 z m 32,-16 a 3,3 0 1 0 0,-6 3,3 0 0 0 0,6 z m 0,-32 a 3,3 0 1 0 0,-6 3,3 0 0 0 0,6 z m 16,32 a 3,3 0 1 0 0,-6 3,3 0 0 0 0,6 z m 32,16 a 3,3 0 1 0 0,-6 3,3 0 0 0 0,6 z m 0,-16 a 3,3 0 1 0 0,-6 3,3 0 0 0 0,6 z m -16,-64 a 3,3 0 1 0 0,-6 3,3 0 0 0 0,6 z m 16,0 a 3,3 0 1 0 0,-6 3,3 0 0 0 0,6 z m 16,96 a 3,3 0 1 0 0,-6 3,3 0 0 0 0,6 z m 0,16 a 3,3 0 1 0 0,-6 3,3 0 0 0 0,6 z m 16,16 a 3,3 0 1 0 0,-6 3,3 0 0 0 0,6 z m 16,-144 a 3,3 0 1 0 0,-6 3,3 0 0 0 0,6 z m 0,32 a 3,3 0 1 0 0,-6 3,3 0 0 0 0,6 z m 16,-32 a 3,3 0 1 0 0,-6 3,3 0 0 0 0,6 z m 16,-16 a 3,3 0 1 0 0,-6 3,3 0 0 0 0,6 z m -96,0 a 3,3 0 1 0 0,-6 3,3 0 0 0 0,6 z m 0,16 a 3,3 0 1 0 0,-6 3,3 0 0 0 0,6 z m 16,-32 a 3,3 0 1 0 0,-6 3,3 0 0 0 0,6 z m 96,0 a 3,3 0 1 0 0,-6 3,3 0 0 0 0,6 z M 273,52 a 3,3 0 1 0 0,-6 3,3 0 0 0 0,6 z m 16,-16 a 3,3 0 1 0 0,-6 3,3 0 0 0 0,6 z m -32,0 a 3,3 0 1 0 0,-6 3,3 0 0 0 0,6 z m 0,-16 a 3,3 0 1 0 0,-6 3,3 0 0 0 0,6 z m -16,0 a 3,3 0 1 0 0,-6 3,3 0 0 0 0,6 z m -16,0 a 3,3 0 1 0 0,-6 3,3 0 0 0 0,6 z m -16,0 a 3,3 0 1 0 0,-6 3,3 0 0 0 0,6 z M 49,36 a 3,3 0 1 0 0,-6 3,3 0 0 0 0,6 z m -32,0 a 3,3 0 1 0 0,-6 3,3 0 0 0 0,6 z m 32,16 a 3,3 0 1 0 0,-6 3,3 0 0 0 0,6 z M 33,68 a 3,3 0 1 0 0,-6 3,3 0 0 0 0,6 z M 49,20 a 3,3 0 1 0 0,-6 3,3 0 0 0 0,6 z m 0,240 a 3,3 0 1 0 0,-6 3,3 0 0 0 0,6 z m 16,32 a 3,3 0 1 0 0,-6 3,3 0 0 0 0,6 z M 49,228 a 3,3 0 1 0 0,-6 3,3 0 0 0 0,6 z m 0,16 a 3,3 0 1 0 0,-6 3,3 0 0 0 0,6 z M 33,212 a 3,3 0 1 0 0,-6 3,3 0 0 0 0,6 z M 113,36 a 3,3 0 1 0 0,-6 3,3 0 0 0 0,6 z m 16,0 a 3,3 0 1 0 0,-6 3,3 0 0 0 0,6 z M 113,20 a 3,3 0 1 0 0,-6 3,3 0 0 0 0,6 z m 32,48 a 3,3 0 1 0 0,-6 3,3 0 0 0 0,6 z m 16,-16 a 3,3 0 1 0 0,-6 3,3 0 0 0 0,6 z m 0,-32 a 3,3 0 1 0 0,-6 3,3 0 0 0 0,6 z m 112,176 a 3,3 0 1 0 0,-6 3,3 0 0 0 0,6 z m -16,16 a 3,3 0 1 0 0,-6 3,3 0 0 0 0,6 z m 0,16 a 3,3 0 1 0 0,-6 3,3 0 0 0 0,6 z m 0,16 a 3,3 0 1 0 0,-6 3,3 0 0 0 0,6 z M 17,180 a 3,3 0 1 0 0,-6 3,3 0 0 0 0,6 z m 0,16 a 3,3 0 1 0 0,-6 3,3 0 0 0 0,6 z m 0,-32 a 3,3 0 1 0 0,-6 3,3 0 0 0 0,6 z m 16,0 a 3,3 0 1 0 0,-6 3,3 0 0 0 0,6 z M 17,84 a 3,3 0 1 0 0,-6 3,3 0 0 0 0,6 z m 32,64 a 3,3 0 1 0 0,-6 3,3 0 0 0 0,6 z m 16,-16 a 3,3 0 1 0 0,-6 3,3 0 0 0 0,6 z"
         id="path7615"
         style="fill:#05876a;fill-opacity:1" /></pattern><style
       id="style8754">.cls-1{fill:#cefbf2;}</style><pattern
       patternUnits="userSpaceOnUse"
       width="304.00011"
       height="304"
       patternTransform="translate(2241.0973,97.219551)"
       id="pattern10936"><g
         id="g7617"
         transform="translate(-885.9866,-389.58984)"><rect
           style="fill:none;stroke:none"
           width="304"
           height="304"
           x="885.98663"
           y="389.58984"
           id="rect7623" /></g><rect
         style="fill:#cefbf2;fill-opacity:1;stroke:none;stroke-width:27.366;stroke-dasharray:none;stroke-opacity:0.988235"
         id="rect10204"
         width="304"
         height="304"
         x="0.00011210937"
         y="0" /><path
         fill="#000000"
         d="m 44.1,224 a 5,5 0 1 1 0,2 H 0 v -2 z m 160,48 a 5,5 0 1 1 0,2 H 82 v -2 z m 57.8,-46 a 5,5 0 1 1 0,-2 H 304 v 2 z m 0,16 a 5,5 0 1 1 0,-2 H 304 v 2 z m 6.2,-114 a 5,5 0 1 1 0,2 h -86.2 a 5,5 0 1 1 0,-2 z M 12.1,79.999999 a 5,5 0 1 1 0,2 H 0 v -2 z M 197.9,114 a 5,5 0 1 1 0,-2 h 86.2 a 5,5 0 1 1 0,2 z M 258,12.099999 a 5,5 0 1 1 -2,0 V 9.1357421e-7 h 2 z M 194,220.1 a 5,5 0 1 1 -2,0 v -54.2 a 5,5 0 1 1 2,0 z M 242,21.899999 v 58.1 h 62 v 2 h -64 v -60.1 a 5,5 0 1 1 2,0 z m 16,16 v 26.1 h 46 v 2 h -48 v -28.1 a 5,5 0 1 1 2,0 z M 130,133.9 V 208 h 16 v 12.1 a 5,5 0 1 1 -2,0 V 210 h -16 v -76.1 a 5,5 0 1 1 2,0 z M 124.1,112 a 5,5 0 1 1 0,2 H 114 v 48 H 85.9 a 5,5 0 1 1 0,-2 H 112 v -48 z m -6.2,130 a 5,5 0 1 1 0,-2 H 176 v -74.1 a 5,5 0 1 1 2,0 V 242 Z m -16,-64 a 5,5 0 1 1 0,-2 H 114 v 48 h 10.1 a 5,5 0 1 1 0,2 H 112 V 178 Z M 66,284.1 a 5,5 0 1 1 -2,0 V 274 H 50 v 30 H 48 V 272 H 66 Z M 236.1,176 a 5,5 0 1 1 0,2 H 226 v 94 h 48 v 32 h -2 v -30 h -48 v -98 z m 25.8,-30 a 5,5 0 1 1 0,-2 H 274 v 44.1 a 5,5 0 1 1 -2,0 V 146 Z m -64,96 a 5,5 0 1 1 0,-2 H 208 v -80 h 16 v -14 h -42.1 a 5,5 0 1 1 0,-2 H 226 v 18 h -16 v 80 z M 284.1,31.999999 a 5,5 0 1 1 0,2 H 272 V 9.1357421e-7 h 2 V 31.999999 Z M 98,101.9 V 146 H 53.9 a 5,5 0 1 1 0,-2 H 96 v -42.1 a 5,5 0 1 1 2,0 z M 53.9,33.999999 a 5,5 0 1 1 0,-2 H 80 V 9.1357421e-7 h 2 V 33.999999 Z m 60.1,3.9 v 28.1 H 82 V 130 H 69.9 a 5,5 0 1 1 0,-2 H 80 V 63.999999 h 32 v -26.1 a 5,5 0 1 1 2,0 z m -12.1,44.1 a 5,5 0 1 1 0,-2 H 128 v -42.1 a 5,5 0 1 1 2,0 v 44.1 z m 16,-64 a 5,5 0 1 1 0,-2 H 146 v 44.1 a 5,5 0 1 1 -2,0 v -42.1 z M 220.1,288 a 5,5 0 1 1 0,2 H 98 v 14 H 96 V 288 Z M 242,149.9 V 160 h 16 v 34 h -16 v 62 h 48 v 48 h -2 v -46 h -48 v -66 h 16 v -30 h -16 v -12.1 a 5,5 0 1 1 2,0 z M 53.9,17.999999 a 5,5 0 1 1 0,-2 H 64 V 2.0000009 H 48 V 9.1357421e-7 H 66 V 17.999999 Z m 112,32 a 5,5 0 1 1 0,-2 H 192 V 9.1357421e-7 h 50 V 2.0000009 H 194 V 49.999999 Z M 117.9,2.0000009 A 5.0009999,5.0009999 0 0 1 108.1,9.1357424e-7 h 2.07 a 3,3 0 1 0 5.66,0 H 178 V 33.999999 h -18 v -12.1 a 5,5 0 1 1 2,0 v 10.1 h 14 V 2.0000009 Z m 0,95.9999981 a 5,5 0 1 1 0,-2 H 137 l 32,-32 h 39 v -42.1 a 5,5 0 1 1 2,0 v 44.1 h -40.17 l -32,32 z M 146,188.1 a 5,5 0 1 1 -2,0 V 111.59 L 175.59,79.999999 H 224 v -58.1 a 5,5 0 1 1 2,0 v 60.1 H 176.41 L 146,112.41 Z m 16,32 a 5,5 0 1 1 -2,0 V 120.59 L 184.59,95.999999 H 300.1 a 5,5 0 0 1 3.9,-3.9 v 2.07 a 3,3 0 0 0 0,5.66 V 101.9 a 5,5 0 0 1 -3.9,-3.900001 H 185.41 L 162,121.41 Z m -144,-64 a 5,5 0 1 1 -2,0 v -3.51 l 48,-48 V 47.999999 H 96 V 9.1357421e-7 h 2 V 49.999999 H 66 V 105.41 l -48,48 z M 50,53.899999 v 43.51 L 2,145.41 V 208 h 26.1 a 5,5 0 1 1 0,2 H 0 V 144.59 L 48,96.589999 v -42.69 a 5,5 0 1 1 2,0 z m -16,16 v 19.51 L 0,123.41 v -2.82 L 32,88.589999 v -18.69 a 5,5 0 1 1 2,0 z m -21.9,-37.9 a 5,5 0 1 1 0,2 H 9.41 l -9.41,9.41 v -2.81 l 8.59,-8.6 z m 265.8,18 a 5,5 0 1 1 0,-2 h 18.69 l 7.41,-7.41 v 2.82 l -6.59,6.59 z M 261.9,210 a 5,5 0 1 1 0,-2 H 288 v -71.41 l 16,-16 v 2.82 l -14,14 V 210 Z m -208,32 a 5,5 0 1 1 0,-2 H 64 V 217.41 L 40.59,194 H 21.9 a 5,5 0 1 1 0,-2 H 41.41 L 66,216.59 V 242 Z m 150.2,14 a 5,5 0 1 1 0,2 H 96 V 201.4 L 56.6,162 H 37.9 a 5,5 0 1 1 0,-2 H 57.4 L 98,200.6 V 256 Z m -150.2,2 a 5,5 0 1 1 0,-2 H 80 V 209.41 L 48.59,178 H 21.9 a 5,5 0 1 1 0,-2 H 49.41 L 82,208.59 V 258 Z M 34,39.799999 v 1.61 l -24.59,24.59 H 0 v -2 H 8.59 L 32,40.589999 V 9.1357421e-7 h 2 z M 2,300.1 A 5,5 0 0 1 5.9,304 H 3.83 A 3,3 0 0 0 0,302.17 V 256 h 18 v 48 H 16 V 258 H 2 Z M 34,241 v 63 H 32 V 242 H 0 v -2 H 34 Z M 17,17.999999 H 0 v -2 H 16 V 9.1357421e-7 h 2 V 17.999999 Z m 273,-2 h 14 v 2 H 288 V 9.1357421e-7 h 2 z M 258,289 v 15 h -2 v -14 h -14 v 14 h -2 v -16 h 18 z M 0,92.099999 a 5.02,5.02 0 0 1 6,4.9 A 5,5 0 0 1 0,101.9 v -2.070001 a 3,3 0 1 0 0,-5.66 z M 80,272 h 2 v 32 h -2 z m 37.9,32 h -2.07 a 3,3 0 0 0 -5.66,0 h -2.07 a 5,5 0 0 1 9.8,0 z M 5.9,9.1357424e-7 A 5.02,5.02 0 0 1 0,5.8999989 v -2.07 A 3,3 0 0 0 3.83,9.1357424e-7 Z m 294.2,0 h 2.07 A 3,3 0 0 0 304,3.8299989 v 2.07 A 5,5 0 0 1 300.1,9.1357424e-7 Z M 304,300.1 v 2.07 a 3,3 0 0 0 -1.83,1.83 h -2.07 a 5,5 0 0 1 3.9,-3.9 z M 97,99.999999 a 3,3 0 1 0 0,-6 3,3 0 0 0 0,6 z m 0,-16 a 3,3 0 1 0 0,-6 3,3 0 0 0 0,6 z m 16,16 a 3,3 0 1 0 0,-6 3,3 0 0 0 0,6 z M 129,116 a 3,3 0 1 0 0,-6 3,3 0 0 0 0,6 z m 0,16 a 3,3 0 1 0 0,-6 3,3 0 0 0 0,6 z m -48,32 a 3,3 0 1 0 0,-6 3,3 0 0 0 0,6 z m 16,16 a 3,3 0 1 0 0,-6 3,3 0 0 0 0,6 z m 32,48 a 3,3 0 1 0 0,-6 3,3 0 0 0 0,6 z m -16,16 a 3,3 0 1 0 0,-6 3,3 0 0 0 0,6 z m 32,-16 a 3,3 0 1 0 0,-6 3,3 0 0 0 0,6 z m 0,-32 a 3,3 0 1 0 0,-6 3,3 0 0 0 0,6 z m 16,32 a 3,3 0 1 0 0,-6 3,3 0 0 0 0,6 z m 32,16 a 3,3 0 1 0 0,-6 3,3 0 0 0 0,6 z m 0,-16 a 3,3 0 1 0 0,-6 3,3 0 0 0 0,6 z m -16,-64 a 3,3 0 1 0 0,-6 3,3 0 0 0 0,6 z m 16,0 a 3,3 0 1 0 0,-6 3,3 0 0 0 0,6 z m 16,96 a 3,3 0 1 0 0,-6 3,3 0 0 0 0,6 z m 0,16 a 3,3 0 1 0 0,-6 3,3 0 0 0 0,6 z m 16,16 a 3,3 0 1 0 0,-6 3,3 0 0 0 0,6 z m 16,-144 a 3,3 0 1 0 0,-6 3,3 0 0 0 0,6 z m 0,32 a 3,3 0 1 0 0,-6 3,3 0 0 0 0,6 z m 16,-32 a 3,3 0 1 0 0,-6 3,3 0 0 0 0,6 z m 16,-16 a 3,3 0 1 0 0,-6 3,3 0 0 0 0,6 z m -96,0 a 3,3 0 1 0 0,-6 3,3 0 0 0 0,6 z m 0,16 a 3,3 0 1 0 0,-6 3,3 0 0 0 0,6 z m 16,-32 a 3,3 0 1 0 0,-6 3,3 0 0 0 0,6 z m 96,0 a 3,3 0 1 0 0,-6 3,3 0 0 0 0,6 z M 273,51.999999 a 3,3 0 1 0 0,-6 3,3 0 0 0 0,6 z m 16,-16 a 3,3 0 1 0 0,-6 3,3 0 0 0 0,6 z m -32,0 a 3,3 0 1 0 0,-6 3,3 0 0 0 0,6 z m 0,-16 a 3,3 0 1 0 0,-6 3,3 0 0 0 0,6 z m -16,0 a 3,3 0 1 0 0,-6 3,3 0 0 0 0,6 z m -16,0 a 3,3 0 1 0 0,-6 3,3 0 0 0 0,6 z m -16,0 a 3,3 0 1 0 0,-6 3,3 0 0 0 0,6 z m -160,16 a 3,3 0 1 0 0,-6 3,3 0 0 0 0,6 z m -32,0 a 3,3 0 1 0 0,-6 3,3 0 0 0 0,6 z m 32,16 a 3,3 0 1 0 0,-6 3,3 0 0 0 0,6 z m -16,16 a 3,3 0 1 0 0,-6 3,3 0 0 0 0,6 z m 16,-48 a 3,3 0 1 0 0,-6 3,3 0 0 0 0,6 z M 49,260 a 3,3 0 1 0 0,-6 3,3 0 0 0 0,6 z m 16,32 a 3,3 0 1 0 0,-6 3,3 0 0 0 0,6 z M 49,228 a 3,3 0 1 0 0,-6 3,3 0 0 0 0,6 z m 0,16 a 3,3 0 1 0 0,-6 3,3 0 0 0 0,6 z M 33,212 a 3,3 0 1 0 0,-6 3,3 0 0 0 0,6 z M 113,35.999999 a 3,3 0 1 0 0,-6 3,3 0 0 0 0,6 z m 16,0 a 3,3 0 1 0 0,-6 3,3 0 0 0 0,6 z m -16,-16 a 3,3 0 1 0 0,-6 3,3 0 0 0 0,6 z m 32,48 a 3,3 0 1 0 0,-6 3,3 0 0 0 0,6 z m 16,-16 a 3,3 0 1 0 0,-6 3,3 0 0 0 0,6 z m 0,-32 a 3,3 0 1 0 0,-6 3,3 0 0 0 0,6 z M 273,196 a 3,3 0 1 0 0,-6 3,3 0 0 0 0,6 z m -16,16 a 3,3 0 1 0 0,-6 3,3 0 0 0 0,6 z m 0,16 a 3,3 0 1 0 0,-6 3,3 0 0 0 0,6 z m 0,16 a 3,3 0 1 0 0,-6 3,3 0 0 0 0,6 z M 17,180 a 3,3 0 1 0 0,-6 3,3 0 0 0 0,6 z m 0,16 a 3,3 0 1 0 0,-6 3,3 0 0 0 0,6 z m 0,-32 a 3,3 0 1 0 0,-6 3,3 0 0 0 0,6 z m 16,0 a 3,3 0 1 0 0,-6 3,3 0 0 0 0,6 z M 17,83.999999 a 3,3 0 1 0 0,-6 3,3 0 0 0 0,6 z M 49,148 a 3,3 0 1 0 0,-6 3,3 0 0 0 0,6 z m 16,-16 a 3,3 0 1 0 0,-6 3,3 0 0 0 0,6 z"
         id="path10206"
         style="fill:#baf0e8;fill-opacity:1" /></pattern><clipPath
       clipPathUnits="userSpaceOnUse"
       id="clipPath18-9-6"><path
         d="M 0,400 H 550 V 0 H 0 Z"
         id="path16-9-7"
         inkscape:connector-curvature="0" /></clipPath><clipPath
       clipPathUnits="userSpaceOnUse"
       id="clipPath18-9-6-5"><path
         d="M 0,400 H 550 V 0 H 0 Z"
         id="path16-9-7-6"
         inkscape:connector-curvature="0" /></clipPath></defs><g
     inkscape:label="Ebene 1"
     inkscape:groupmode="layer"
     id="layer1"><g
       inkscape:label="Ebene 1"
       id="layer1-5"
       transform="matrix(0.26458333,0,0,0.26458333,-90.285051,-108.23835)"><rect
         style="fill:url(#pattern449);fill-opacity:1;stroke:none;stroke-width:83.2641;stroke-dasharray:none;stroke-opacity:0.988235"
         id="rect7555"
         width="1080"
         height="1920"
         x="341.23486"
         y="409.08984" /><rect
         style="fill:none;fill-opacity:1;stroke:none;stroke-width:6.7093;stroke-opacity:0.988235"
         id="rect231"
         width="1920"
         height="1080"
         x="0.059739176"
         y="1.3468571" /><rect
         style="fill:none;stroke:none;stroke-width:5.53701;stroke-opacity:0.988235"
         id="rect4398"
         width="424.99371"
         height="242.76138"
         x="18.686359"
         y="32.941139" /><rect
         style="fill:none;stroke:none"
         width="304"
         height="304"
         x="2434.907"
         y="-191.58762"
         id="rect7501" /><g
         id="g2"
         transform="matrix(1.6404767,0,0,1.6404767,-1575.7275,-246.92709)"><g
           id="g1"
           transform="matrix(0.30601841,0,0,0.30601841,1056.8994,742.69175)"><ellipse
             style="fill:#0b7c93;fill-opacity:1;stroke:#87e2f6;stroke-width:18.3875;stroke-linecap:round;stroke-linejoin:round;stroke-miterlimit:4;stroke-dasharray:none;stroke-opacity:1"
             id="path872-8"
             cx="735.24872"
             cy="792.10297"
             rx="228.82016"
             ry="228.8194" /><path
             d="m 711.85994,772.30669 c 11.58057,0 19.91478,11.66789 28.73938,24.02107 10.2287,14.32097 21.82253,30.5528 41.42702,30.5528 44.21185,0 60.65496,-84.12173 62.37014,-93.55521 l -15.3415,-2.79418 c -3.75936,20.59072 -20.56967,80.75685 -47.02864,80.75685 -11.58057,0 -19.91478,-11.66789 -28.73938,-24.02108 -10.2287,-14.32096 -21.82253,-30.55279 -41.42702,-30.55279 -32.63518,0 -58.04165,57.7259 -70.16641,91.69736 V 670.95522 H 626.101 v 202.70294 a 15.612025,15.612025 0 0 0 15.59253,15.59253 H 844.39648 V 873.65816 H 649.83206 c 11.77626,-40.09309 38.35373,-101.35147 62.02788,-101.35147 z"
             id="path1"
             style="fill:#87e2f6;fill-opacity:1;stroke-width:7.79627" /></g><text
           xml:space="preserve"
           style="font-size:74.6667px;line-height:1.25;font-family:'Josefin Sans';-inkscape-font-specification:'Josefin Sans'"
           x="1380.6982"
           y="1013.6125"
           id="text1"><tspan
             sodipodi:role="line"
             id="tspan1"
             x="1380.6982"
             y="1013.6125"
             style="font-size:74.6667px;fill:#0b7c93;fill-opacity:1">Mathematik</tspan></text></g><text
         xml:space="preserve"
         style="font-size:65.6191px;line-height:1.25;font-family:Montserrat;-inkscape-font-specification:Montserrat;stroke-width:1.64048"
         x="373.45496"
         y="1639.0035"
         id="text4907"
         transform="rotate(-5.1123681)"><tspan
           sodipodi:role="line"
           x="373.45496"
           y="1639.0035"
           style="font-style:normal;font-variant:normal;font-weight:normal;font-stretch:normal;font-family:'MV Boli';-inkscape-font-specification:'MV Boli';stroke-width:1.64048"
           id="tspan4909">produced by OpenPatch</tspan></text></g></g></svg>
